<mxfile host="Electron" agent="Mozilla/5.0 (Windows NT 10.0; Win64; x64) AppleWebKit/537.36 (KHTML, like Gecko) draw.io/28.2.5 Chrome/138.0.7204.251 Electron/37.6.1 Safari/537.36" version="28.2.5">
  <diagram name="Page-1" id="TYLB-tXF7YIULr7tq6_q">
    <mxGraphModel dx="1726" dy="537" grid="1" gridSize="10" guides="1" tooltips="1" connect="1" arrows="1" fold="1" page="1" pageScale="1" pageWidth="850" pageHeight="1100" math="0" shadow="0">
      <root>
        <mxCell id="0" />
        <mxCell id="1" parent="0" />
        <mxCell id="_6IrgrIfYnshjxPpcYgZ-1" value="&lt;b&gt;&lt;font style=&quot;font-size: 18px;&quot;&gt;High Level Architecture&lt;/font&gt;&lt;/b&gt;" style="text;html=1;align=center;verticalAlign=middle;resizable=0;points=[];autosize=1;strokeColor=none;fillColor=none;" vertex="1" parent="1">
          <mxGeometry x="-5" y="25" width="220" height="40" as="geometry" />
        </mxCell>
        <mxCell id="_6IrgrIfYnshjxPpcYgZ-2" value="" style="rounded=0;whiteSpace=wrap;html=1;fillColor=none;dashed=1;dashPattern=1 1;strokeColor=light-dark(#918383, #959595);" vertex="1" parent="1">
          <mxGeometry x="10" y="130" width="150" height="320" as="geometry" />
        </mxCell>
        <mxCell id="_6IrgrIfYnshjxPpcYgZ-3" value="&lt;font style=&quot;font-size: 18px;&quot;&gt;Sources&lt;/font&gt;" style="rounded=0;whiteSpace=wrap;html=1;strokeColor=light-dark(#f3ecec, #ededed);" vertex="1" parent="1">
          <mxGeometry x="51.25" y="115" width="87.5" height="20" as="geometry" />
        </mxCell>
        <mxCell id="_6IrgrIfYnshjxPpcYgZ-5" value="" style="rounded=0;whiteSpace=wrap;html=1;fillColor=none;dashed=1;dashPattern=1 1;strokeColor=light-dark(#787373, #996500);" vertex="1" parent="1">
          <mxGeometry x="190" y="110" width="450" height="560" as="geometry" />
        </mxCell>
        <mxCell id="_6IrgrIfYnshjxPpcYgZ-6" value="&lt;font style=&quot;font-size: 18px;&quot;&gt;Data warehouse&lt;/font&gt;" style="rounded=0;whiteSpace=wrap;html=1;strokeColor=light-dark(#f6efef, #ededed);" vertex="1" parent="1">
          <mxGeometry x="330" y="100" width="157.34" height="30" as="geometry" />
        </mxCell>
        <mxCell id="_6IrgrIfYnshjxPpcYgZ-7" value="" style="rounded=0;whiteSpace=wrap;html=1;fillColor=none;dashed=1;dashPattern=1 1;strokeColor=light-dark(#a39f9f, #ededed);" vertex="1" parent="1">
          <mxGeometry x="660" y="130" width="110" height="490" as="geometry" />
        </mxCell>
        <mxCell id="_6IrgrIfYnshjxPpcYgZ-8" value="&lt;font style=&quot;font-size: 18px;&quot;&gt;Consumers&lt;/font&gt;" style="rounded=0;whiteSpace=wrap;html=1;strokeColor=light-dark(#f3ecec, #ededed);" vertex="1" parent="1">
          <mxGeometry x="666.25" y="115" width="97.5" height="30" as="geometry" />
        </mxCell>
        <mxCell id="_6IrgrIfYnshjxPpcYgZ-9" value="&lt;font style=&quot;font-size: 14px;&quot;&gt;&lt;b&gt;Bronze Layer&lt;/b&gt;&lt;/font&gt;" style="rounded=0;whiteSpace=wrap;html=1;fillColor=#ffe6cc;strokeColor=#d79b00;" vertex="1" parent="1">
          <mxGeometry x="220" y="150" width="110" height="20" as="geometry" />
        </mxCell>
        <mxCell id="_6IrgrIfYnshjxPpcYgZ-10" value="" style="rounded=0;whiteSpace=wrap;html=1;fillColor=none;strokeColor=#d79b00;" vertex="1" parent="1">
          <mxGeometry x="215" y="180" width="110" height="460" as="geometry" />
        </mxCell>
        <mxCell id="_6IrgrIfYnshjxPpcYgZ-11" value="&lt;font style=&quot;font-size: 14px;&quot;&gt;&lt;b&gt;Silver Layer&lt;/b&gt;&lt;/font&gt;" style="rounded=0;whiteSpace=wrap;html=1;fillColor=#f5f5f5;strokeColor=#666666;fontColor=#333333;" vertex="1" parent="1">
          <mxGeometry x="360" y="150" width="110" height="20" as="geometry" />
        </mxCell>
        <mxCell id="_6IrgrIfYnshjxPpcYgZ-12" value="" style="rounded=0;whiteSpace=wrap;html=1;fillColor=none;strokeColor=#666666;fontColor=#333333;" vertex="1" parent="1">
          <mxGeometry x="350" y="180" width="120" height="460" as="geometry" />
        </mxCell>
        <mxCell id="_6IrgrIfYnshjxPpcYgZ-13" value="&lt;font style=&quot;font-size: 14px;&quot;&gt;&lt;b&gt;Gold Layer&lt;/b&gt;&lt;/font&gt;" style="rounded=0;whiteSpace=wrap;html=1;fillColor=#fff2cc;strokeColor=#d6b656;" vertex="1" parent="1">
          <mxGeometry x="490" y="150" width="130" height="20" as="geometry" />
        </mxCell>
        <mxCell id="_6IrgrIfYnshjxPpcYgZ-14" value="" style="rounded=0;whiteSpace=wrap;html=1;fillColor=none;strokeColor=#d6b656;" vertex="1" parent="1">
          <mxGeometry x="490" y="180" width="130" height="460" as="geometry" />
        </mxCell>
        <mxCell id="_6IrgrIfYnshjxPpcYgZ-15" value="&lt;b&gt;CRM&lt;/b&gt;" style="image;aspect=fixed;html=1;points=[];align=center;fontSize=12;image=img/lib/azure2/general/Folder_Blank.svg;" vertex="1" parent="1">
          <mxGeometry x="79.18000000000004" y="190" width="31.64" height="25.68" as="geometry" />
        </mxCell>
        <mxCell id="_6IrgrIfYnshjxPpcYgZ-17" value="" style="image;aspect=fixed;html=1;points=[];align=center;fontSize=12;image=img/lib/azure2/general/File.svg;" vertex="1" parent="1">
          <mxGeometry x="100" y="200" width="16.23" height="20" as="geometry" />
        </mxCell>
        <mxCell id="_6IrgrIfYnshjxPpcYgZ-24" value="&lt;b&gt;ERP&lt;/b&gt;" style="image;aspect=fixed;html=1;points=[];align=center;fontSize=12;image=img/lib/azure2/general/Folder_Blank.svg;" vertex="1" parent="1">
          <mxGeometry x="76.48000000000003" y="290" width="31.64" height="25.68" as="geometry" />
        </mxCell>
        <mxCell id="_6IrgrIfYnshjxPpcYgZ-25" value="" style="image;aspect=fixed;html=1;points=[];align=center;fontSize=12;image=img/lib/azure2/general/File.svg;" vertex="1" parent="1">
          <mxGeometry x="97.3" y="300" width="16.23" height="20" as="geometry" />
        </mxCell>
        <mxCell id="_6IrgrIfYnshjxPpcYgZ-30" value="" style="endArrow=none;html=1;rounded=0;startArrow=none;startFill=0;fillColor=#f5f5f5;strokeColor=light-dark(#918383, #959595);entryX=1;entryY=0.719;entryDx=0;entryDy=0;entryPerimeter=0;exitX=0;exitY=0.719;exitDx=0;exitDy=0;exitPerimeter=0;" edge="1" parent="1" source="_6IrgrIfYnshjxPpcYgZ-2" target="_6IrgrIfYnshjxPpcYgZ-2">
          <mxGeometry width="50" height="50" relative="1" as="geometry">
            <mxPoint x="50" y="360" as="sourcePoint" />
            <mxPoint x="140" y="360" as="targetPoint" />
          </mxGeometry>
        </mxCell>
        <mxCell id="_6IrgrIfYnshjxPpcYgZ-32" value="&lt;font style=&quot;font-size: 10px;&quot;&gt;&lt;b style=&quot;&quot;&gt;Object Type:&lt;/b&gt; CSV Files&lt;/font&gt;&lt;div&gt;&lt;font style=&quot;font-size: 10px;&quot;&gt;&lt;b style=&quot;&quot;&gt;Interface&lt;/b&gt;: Files in Folder&lt;/font&gt;&lt;/div&gt;" style="rounded=0;whiteSpace=wrap;html=1;strokeColor=light-dark(#cbb9b9, #ededed);fillColor=none;" vertex="1" parent="1">
          <mxGeometry x="22.5" y="370" width="125" height="50" as="geometry" />
        </mxCell>
        <mxCell id="_6IrgrIfYnshjxPpcYgZ-34" value="" style="html=1;verticalLabelPosition=bottom;align=center;labelBackgroundColor=#ffffff;verticalAlign=top;strokeWidth=2;strokeColor=#d79b00;shadow=0;dashed=0;shape=mxgraph.ios7.icons.data;fillColor=#ffe6cc;" vertex="1" parent="1">
          <mxGeometry x="258" y="249.99999999999997" width="24" height="29.099999999999998" as="geometry" />
        </mxCell>
        <mxCell id="_6IrgrIfYnshjxPpcYgZ-35" value="" style="html=1;verticalLabelPosition=bottom;align=center;labelBackgroundColor=#ffffff;verticalAlign=top;strokeWidth=2;strokeColor=#666666;shadow=0;dashed=0;shape=mxgraph.ios7.icons.data;fillColor=#f5f5f5;fontColor=#333333;" vertex="1" parent="1">
          <mxGeometry x="398" y="249.99999999999997" width="24" height="29.099999999999998" as="geometry" />
        </mxCell>
        <mxCell id="_6IrgrIfYnshjxPpcYgZ-36" value="" style="html=1;verticalLabelPosition=bottom;align=center;labelBackgroundColor=#ffffff;verticalAlign=top;strokeWidth=2;strokeColor=#d6b656;shadow=0;dashed=0;shape=mxgraph.ios7.icons.data;fillColor=#fff2cc;" vertex="1" parent="1">
          <mxGeometry x="543" y="249.99999999999997" width="24" height="29.099999999999998" as="geometry" />
        </mxCell>
        <mxCell id="_6IrgrIfYnshjxPpcYgZ-37" value="" style="shape=flexArrow;endArrow=classic;html=1;rounded=0;entryX=-0.004;entryY=0.3;entryDx=0;entryDy=0;entryPerimeter=0;fillColor=#dae8fc;strokeColor=#6c8ebf;" edge="1" parent="1">
          <mxGeometry width="50" height="50" relative="1" as="geometry">
            <mxPoint x="160" y="264.05" as="sourcePoint" />
            <mxPoint x="229.55999999999995" y="264.05" as="targetPoint" />
          </mxGeometry>
        </mxCell>
        <mxCell id="_6IrgrIfYnshjxPpcYgZ-40" value="" style="shape=flexArrow;endArrow=classic;html=1;rounded=0;entryX=-0.004;entryY=0.344;entryDx=0;entryDy=0;entryPerimeter=0;fillColor=#dae8fc;strokeColor=#6c8ebf;" edge="1" parent="1">
          <mxGeometry width="50" height="50" relative="1" as="geometry">
            <mxPoint x="300" y="264.05" as="sourcePoint" />
            <mxPoint x="376" y="264.52" as="targetPoint" />
          </mxGeometry>
        </mxCell>
        <mxCell id="_6IrgrIfYnshjxPpcYgZ-41" value="" style="shape=flexArrow;endArrow=classic;html=1;rounded=0;entryX=-0.004;entryY=0.344;entryDx=0;entryDy=0;entryPerimeter=0;fillColor=#dae8fc;strokeColor=#6c8ebf;" edge="1" parent="1">
          <mxGeometry width="50" height="50" relative="1" as="geometry">
            <mxPoint x="440" y="265" as="sourcePoint" />
            <mxPoint x="506" y="264.52" as="targetPoint" />
          </mxGeometry>
        </mxCell>
        <mxCell id="_6IrgrIfYnshjxPpcYgZ-44" value="Raw Data" style="text;html=1;align=center;verticalAlign=middle;whiteSpace=wrap;rounded=0;" vertex="1" parent="1">
          <mxGeometry x="243.16" y="279.52" width="60" height="30" as="geometry" />
        </mxCell>
        <mxCell id="_6IrgrIfYnshjxPpcYgZ-45" value="Cleansed, Standardized Data" style="text;html=1;align=center;verticalAlign=middle;whiteSpace=wrap;rounded=0;" vertex="1" parent="1">
          <mxGeometry x="376.83" y="290" width="60" height="30" as="geometry" />
        </mxCell>
        <mxCell id="_6IrgrIfYnshjxPpcYgZ-46" value="Business Ready Data" style="text;html=1;align=center;verticalAlign=middle;whiteSpace=wrap;rounded=0;" vertex="1" parent="1">
          <mxGeometry x="515" y="285.68" width="80" height="30" as="geometry" />
        </mxCell>
        <mxCell id="_6IrgrIfYnshjxPpcYgZ-47" value="" style="shape=flexArrow;endArrow=classic;html=1;rounded=0;entryX=-0.004;entryY=0.344;entryDx=0;entryDy=0;entryPerimeter=0;fillColor=#dae8fc;strokeColor=#6c8ebf;" edge="1" parent="1">
          <mxGeometry width="50" height="50" relative="1" as="geometry">
            <mxPoint x="600" y="264.05" as="sourcePoint" />
            <mxPoint x="676" y="264.52" as="targetPoint" />
          </mxGeometry>
        </mxCell>
        <mxCell id="_6IrgrIfYnshjxPpcYgZ-48" value="" style="endArrow=none;html=1;rounded=0;startArrow=none;startFill=0;fillColor=#f5f5f5;strokeColor=light-dark(#918383, #959595);" edge="1" parent="1">
          <mxGeometry width="50" height="50" relative="1" as="geometry">
            <mxPoint x="226" y="330" as="sourcePoint" />
            <mxPoint x="320" y="330" as="targetPoint" />
          </mxGeometry>
        </mxCell>
        <mxCell id="_6IrgrIfYnshjxPpcYgZ-49" value="" style="endArrow=none;html=1;rounded=0;startArrow=none;startFill=0;fillColor=#f5f5f5;strokeColor=light-dark(#918383, #959595);exitX=0.029;exitY=0.6;exitDx=0;exitDy=0;exitPerimeter=0;" edge="1" parent="1">
          <mxGeometry width="50" height="50" relative="1" as="geometry">
            <mxPoint x="369.50000000000006" y="329.5" as="sourcePoint" />
            <mxPoint x="460.50000000000006" y="329.5" as="targetPoint" />
          </mxGeometry>
        </mxCell>
        <mxCell id="_6IrgrIfYnshjxPpcYgZ-50" value="" style="endArrow=none;html=1;rounded=0;startArrow=none;startFill=0;fillColor=#f5f5f5;strokeColor=light-dark(#918383, #959595);exitX=0.029;exitY=0.6;exitDx=0;exitDy=0;exitPerimeter=0;" edge="1" parent="1">
          <mxGeometry width="50" height="50" relative="1" as="geometry">
            <mxPoint x="509.5" y="329.5" as="sourcePoint" />
            <mxPoint x="600.5000000000001" y="329.5" as="targetPoint" />
          </mxGeometry>
        </mxCell>
        <mxCell id="_6IrgrIfYnshjxPpcYgZ-55" value="&lt;div style=&quot;text-align: left;&quot;&gt;&lt;b style=&quot;font-size: 10px; background-color: transparent; color: light-dark(rgb(0, 0, 0), rgb(255, 255, 255));&quot;&gt;Object Type:&lt;/b&gt;&lt;span style=&quot;font-size: 10px; background-color: transparent; color: light-dark(rgb(0, 0, 0), rgb(255, 255, 255));&quot;&gt;&amp;nbsp;Table&lt;/span&gt;&lt;/div&gt;&lt;div style=&quot;text-align: left;&quot;&gt;&lt;span style=&quot;font-size: 10px; background-color: transparent; color: light-dark(rgb(0, 0, 0), rgb(255, 255, 255));&quot;&gt;&lt;b&gt;&amp;nbsp;Load:&lt;/b&gt;&lt;/span&gt;&lt;/div&gt;&lt;div style=&quot;&quot;&gt;&lt;ul&gt;&lt;li style=&quot;text-align: left;&quot;&gt;&lt;span style=&quot;font-size: 10px; background-color: transparent; color: light-dark(rgb(0, 0, 0), rgb(255, 255, 255));&quot;&gt;Batch Processing&lt;/span&gt;&lt;/li&gt;&lt;li style=&quot;text-align: left;&quot;&gt;&lt;span style=&quot;background-color: transparent; color: light-dark(rgb(0, 0, 0), rgb(255, 255, 255)); font-size: 10px;&quot;&gt;Full load&lt;/span&gt;&lt;/li&gt;&lt;li style=&quot;text-align: left;&quot;&gt;&lt;span style=&quot;background-color: transparent; color: light-dark(rgb(0, 0, 0), rgb(255, 255, 255)); font-size: 10px;&quot;&gt;Trunc &amp;amp; Inser&lt;/span&gt;&lt;b style=&quot;background-color: transparent; color: light-dark(rgb(0, 0, 0), rgb(255, 255, 255)); font-size: 10px;&quot;&gt;t&lt;/b&gt;&lt;/li&gt;&lt;/ul&gt;&lt;div style=&quot;text-align: left;&quot;&gt;&lt;span style=&quot;font-size: 10px;&quot;&gt;&lt;b&gt;No Transformations&lt;/b&gt;&lt;/span&gt;&lt;/div&gt;&lt;div style=&quot;text-align: left;&quot;&gt;&lt;span style=&quot;font-size: 10px;&quot;&gt;&lt;b&gt;Data Model: None (As is)&lt;/b&gt;&lt;/span&gt;&lt;/div&gt;&lt;/div&gt;" style="rounded=0;whiteSpace=wrap;html=1;strokeColor=none;fillColor=none;" vertex="1" parent="1">
          <mxGeometry x="215" y="340" width="110" height="150" as="geometry" />
        </mxCell>
        <mxCell id="_6IrgrIfYnshjxPpcYgZ-58" value="&lt;div style=&quot;text-align: left;&quot;&gt;&lt;b style=&quot;font-size: 10px; background-color: transparent; color: light-dark(rgb(0, 0, 0), rgb(255, 255, 255));&quot;&gt;Object Type:&lt;/b&gt;&lt;span style=&quot;font-size: 10px; background-color: transparent; color: light-dark(rgb(0, 0, 0), rgb(255, 255, 255));&quot;&gt;&amp;nbsp;Table&lt;/span&gt;&lt;/div&gt;&lt;div style=&quot;text-align: left;&quot;&gt;&lt;span style=&quot;font-size: 10px; background-color: transparent; color: light-dark(rgb(0, 0, 0), rgb(255, 255, 255));&quot;&gt;&lt;b&gt;&amp;nbsp;Load:&lt;/b&gt;&lt;/span&gt;&lt;/div&gt;&lt;div style=&quot;&quot;&gt;&lt;ul&gt;&lt;li style=&quot;text-align: left;&quot;&gt;&lt;span style=&quot;font-size: 10px; background-color: transparent; color: light-dark(rgb(0, 0, 0), rgb(255, 255, 255));&quot;&gt;Batch Processing&lt;/span&gt;&lt;/li&gt;&lt;li style=&quot;text-align: left;&quot;&gt;&lt;span style=&quot;background-color: transparent; color: light-dark(rgb(0, 0, 0), rgb(255, 255, 255)); font-size: 10px;&quot;&gt;Full load&lt;/span&gt;&lt;/li&gt;&lt;li style=&quot;text-align: left;&quot;&gt;&lt;span style=&quot;background-color: transparent; color: light-dark(rgb(0, 0, 0), rgb(255, 255, 255)); font-size: 10px;&quot;&gt;Trunc &amp;amp; Insert&lt;/span&gt;&lt;/li&gt;&lt;/ul&gt;&lt;div style=&quot;text-align: left;&quot;&gt;&lt;span style=&quot;font-size: 10px;&quot;&gt;&lt;b&gt;Transformations:&lt;/b&gt;&lt;/span&gt;&lt;/div&gt;&lt;div style=&quot;text-align: left;&quot;&gt;&lt;ul&gt;&lt;li&gt;&lt;span style=&quot;font-size: 10px;&quot;&gt;Data Cleansing&lt;/span&gt;&lt;/li&gt;&lt;li&gt;&lt;span style=&quot;font-size: 10px;&quot;&gt;Data Standardization&lt;/span&gt;&lt;/li&gt;&lt;li&gt;&lt;span style=&quot;font-size: 10px;&quot;&gt;Data Normalization&lt;/span&gt;&lt;/li&gt;&lt;li&gt;&lt;span style=&quot;font-size: 10px;&quot;&gt;Data Columns&lt;/span&gt;&lt;/li&gt;&lt;li&gt;&lt;span style=&quot;font-size: 10px;&quot;&gt;Data Enrichment&lt;/span&gt;&lt;/li&gt;&lt;/ul&gt;&lt;/div&gt;&lt;div style=&quot;text-align: left;&quot;&gt;&lt;span style=&quot;font-size: 10px;&quot;&gt;&lt;b&gt;Data Model: None (As is)&lt;/b&gt;&lt;/span&gt;&lt;/div&gt;&lt;/div&gt;" style="rounded=0;whiteSpace=wrap;html=1;strokeColor=none;fillColor=none;" vertex="1" parent="1">
          <mxGeometry x="360" y="410" width="110" height="150" as="geometry" />
        </mxCell>
        <mxCell id="_6IrgrIfYnshjxPpcYgZ-59" value="&lt;div style=&quot;text-align: left;&quot;&gt;&lt;b style=&quot;font-size: 10px; background-color: transparent; color: light-dark(rgb(0, 0, 0), rgb(255, 255, 255));&quot;&gt;Object Type:&lt;/b&gt;&lt;span style=&quot;font-size: 10px; background-color: transparent; color: light-dark(rgb(0, 0, 0), rgb(255, 255, 255));&quot;&gt;&amp;nbsp;Views&lt;/span&gt;&lt;/div&gt;&lt;div style=&quot;text-align: left;&quot;&gt;&lt;span style=&quot;font-size: 10px; background-color: transparent; color: light-dark(rgb(0, 0, 0), rgb(255, 255, 255));&quot;&gt;&lt;b&gt;No Load&lt;/b&gt;&lt;/span&gt;&lt;/div&gt;&lt;div style=&quot;&quot;&gt;&lt;div style=&quot;text-align: left;&quot;&gt;&lt;span style=&quot;font-size: 10px;&quot;&gt;&lt;b&gt;Transformations:&lt;/b&gt;&lt;/span&gt;&lt;/div&gt;&lt;div style=&quot;text-align: left;&quot;&gt;&lt;ul&gt;&lt;li&gt;&lt;span style=&quot;font-size: 10px;&quot;&gt;Data Integrations&lt;/span&gt;&lt;/li&gt;&lt;li&gt;&lt;span style=&quot;font-size: 10px;&quot;&gt;Aggregations&lt;/span&gt;&lt;/li&gt;&lt;li&gt;&lt;span style=&quot;font-size: 10px;&quot;&gt;Business Logics&lt;/span&gt;&lt;/li&gt;&lt;/ul&gt;&lt;/div&gt;&lt;div style=&quot;text-align: left;&quot;&gt;&lt;span style=&quot;font-size: 10px;&quot;&gt;&lt;b&gt;Data Model:&amp;nbsp;&lt;/b&gt;&lt;/span&gt;&lt;/div&gt;&lt;div style=&quot;text-align: left;&quot;&gt;&lt;ul&gt;&lt;li&gt;&lt;span style=&quot;font-size: 10px;&quot;&gt;Star Schema&lt;/span&gt;&lt;/li&gt;&lt;li&gt;&lt;span style=&quot;font-size: 10px;&quot;&gt;Flat Table&lt;/span&gt;&lt;/li&gt;&lt;li&gt;&lt;span style=&quot;font-size: 10px;&quot;&gt;Aggregated Table&lt;/span&gt;&lt;/li&gt;&lt;/ul&gt;&lt;/div&gt;&lt;/div&gt;" style="rounded=0;whiteSpace=wrap;html=1;strokeColor=none;fillColor=none;" vertex="1" parent="1">
          <mxGeometry x="500" y="380" width="110" height="150" as="geometry" />
        </mxCell>
        <mxCell id="_6IrgrIfYnshjxPpcYgZ-60" value="Power BI &amp;amp;&amp;nbsp;&lt;div&gt;Reporting&lt;/div&gt;" style="image;aspect=fixed;html=1;points=[];align=center;fontSize=12;image=img/lib/azure2/analytics/Power_BI_Embedded.svg;" vertex="1" parent="1">
          <mxGeometry x="696" y="248.2" width="23.17" height="30.9" as="geometry" />
        </mxCell>
        <mxCell id="_6IrgrIfYnshjxPpcYgZ-61" value="Adhoc SQL&lt;div&gt;Queries&lt;/div&gt;" style="sketch=0;points=[[0,0,0],[0.25,0,0],[0.5,0,0],[0.75,0,0],[1,0,0],[0,1,0],[0.25,1,0],[0.5,1,0],[0.75,1,0],[1,1,0],[0,0.25,0],[0,0.5,0],[0,0.75,0],[1,0.25,0],[1,0.5,0],[1,0.75,0]];outlineConnect=0;fontColor=#232F3E;fillColor=#8C4FFF;strokeColor=#ffffff;dashed=0;verticalLabelPosition=bottom;verticalAlign=top;align=center;html=1;fontSize=12;fontStyle=0;aspect=fixed;shape=mxgraph.aws4.resourceIcon;resIcon=mxgraph.aws4.sql_workbench;" vertex="1" parent="1">
          <mxGeometry x="696" y="356" width="38" height="38" as="geometry" />
        </mxCell>
        <mxCell id="_6IrgrIfYnshjxPpcYgZ-62" value="" style="points=[];aspect=fixed;html=1;align=center;shadow=0;dashed=0;fillColor=#FF6A00;strokeColor=none;shape=mxgraph.alibaba_cloud.machine_learning;" vertex="1" parent="1">
          <mxGeometry x="690" y="459.95" width="49.8" height="50.099999999999994" as="geometry" />
        </mxCell>
        <mxCell id="_6IrgrIfYnshjxPpcYgZ-64" value="Machine learning" style="text;html=1;align=center;verticalAlign=middle;whiteSpace=wrap;rounded=0;" vertex="1" parent="1">
          <mxGeometry x="685" y="510.05" width="60" height="30" as="geometry" />
        </mxCell>
        <mxCell id="_6IrgrIfYnshjxPpcYgZ-65" value="SQL Server" style="text;html=1;align=center;verticalAlign=middle;resizable=0;points=[];autosize=1;strokeColor=none;fillColor=none;" vertex="1" parent="1">
          <mxGeometry x="180" y="90" width="90" height="30" as="geometry" />
        </mxCell>
      </root>
    </mxGraphModel>
  </diagram>
</mxfile>
